HIERARCHY
ROOT hips
{
  OFFSET 0 9.313263304106702 1.2146308026317778
  CHANNELS 6 Xposition Yposition Zposition Yrotation Xrotation Zrotation
  JOINT spine
  {
    OFFSET -6.402521e-31 0.5173342420023708 0
    CHANNELS 3 Yrotation Xrotation Zrotation
    JOINT chest
    {
      OFFSET 0 1.130544299341115 0
      CHANNELS 3 Yrotation Xrotation Zrotation
      JOINT upperChest
      {
        OFFSET 0 1.0863555061129995 0
        CHANNELS 3 Yrotation Xrotation Zrotation
        JOINT neck
        {
          OFFSET 0 1.3773706506454462 0
          CHANNELS 3 Yrotation Xrotation Zrotation
          JOINT head
          {
            OFFSET 0 0.7374408940073979 0
            CHANNELS 3 Yrotation Xrotation Zrotation
            JOINT leftEye
            {
              OFFSET 0.25066580148932727 0.6408406698778757 0.15963719178883284
              CHANNELS 3 Yrotation Xrotation Zrotation
              End Site
              {
                OFFSET 0.25066580148932727 0.6408406698778757 0.15963719178883284
              }
            }
            JOINT rightEye
            {
              OFFSET -0.25066576739704244 0.6408406384191823 0.15963727561643756
              CHANNELS 3 Yrotation Xrotation Zrotation
              End Site
              {
                OFFSET -0.25066576739704244 0.6408406384191823 0.15963727561643756
              }
            }
          }
        }
        JOINT leftShoulder
        {
          OFFSET 0.3761817444281191 1.0539491987447769 0
          CHANNELS 3 Yrotation Xrotation Zrotation
          JOINT leftUpperArm
          {
            OFFSET 0.8702844380000002 0 0
            CHANNELS 3 Yrotation Xrotation Zrotation
            JOINT leftLowerArm
            {
              OFFSET 2.198527310000323 0 0
              CHANNELS 3 Yrotation Xrotation Zrotation
              JOINT leftHand
              {
                OFFSET 2.146852313968281 0 0
                CHANNELS 3 Yrotation Xrotation Zrotation
                JOINT leftIndexProximal
                {
                  OFFSET 0.6585177834681599 0.07380250427007962 0.18382213159631788
                  CHANNELS 3 Yrotation Xrotation Zrotation
                  JOINT leftIndexIntermediate
                  {
                    OFFSET 0.3323021288626682 -0.009606893929485771 -0.012820872253340998
                    CHANNELS 3 Yrotation Xrotation Zrotation
                    JOINT leftIndexDistal
                    {
                      OFFSET 0.2045908926985518 -0.0071133989147997845 -0.006828784783599051
                      CHANNELS 3 Yrotation Xrotation Zrotation
                      End Site
                      {
                        OFFSET 0.2045908926985518 -0.0071133989147997845 -0.006828784783599051
                      }
                    }
                  }
                }
                JOINT leftLittleProximal
                {
                  OFFSET 0.6110054258835662 0.07380246363125398 -0.29175655876064077
                  CHANNELS 3 Yrotation Xrotation Zrotation
                  JOINT leftLittleIntermediate
                  {
                    OFFSET 0.3144281999999998 -2.5124724523095665e-9 1.8658118799974588e-7
                    CHANNELS 3 Yrotation Xrotation Zrotation
                    JOINT leftLittleDistal
                    {
                      OFFSET 0.18116185580251631 0.002815456192251098 0.0034826415518049436
                      CHANNELS 3 Yrotation Xrotation Zrotation
                      End Site
                      {
                        OFFSET 0.18116185580251631 0.002815456192251098 0.0034826415518049436
                      }
                    }
                  }
                }
                JOINT leftMiddleProximal
                {
                  OFFSET 0.6637478005691111 0.07380246480054087 0.02046981859247815
                  CHANNELS 3 Yrotation Xrotation Zrotation
                  JOINT leftMiddleIntermediate
                  {
                    OFFSET 0.3705733999999994 -2.9611069152224445e-9 9.35054791928458e-8
                    CHANNELS 3 Yrotation Xrotation Zrotation
                    JOINT leftMiddleDistal
                    {
                      OFFSET 0.22861063500000056 -1.82673876025774e-9 -1.6740782024515788e-7
                      CHANNELS 3 Yrotation Xrotation Zrotation
                      End Site
                      {
                        OFFSET 0.22861063500000056 -1.82673876025774e-9 -1.6740782024515788e-7
                      }
                    }
                  }
                }
                JOINT leftRingProximal
                {
                  OFFSET 0.6561845547265777 0.07380246406440083 -0.13588087571513918
                  CHANNELS 3 Yrotation Xrotation Zrotation
                  JOINT leftRingIntermediate
                  {
                    OFFSET 0.3437531000000005 -2.746796123886952e-9 1.4935781944558357e-7
                    CHANNELS 3 Yrotation Xrotation Zrotation
                    JOINT leftRingDistal
                    {
                      OFFSET 0.1983118991198174 -0.002467117924596085 -0.004538141969590015
                      CHANNELS 3 Yrotation Xrotation Zrotation
                      End Site
                      {
                        OFFSET 0.1983118991198174 -0.002467117924596085 -0.004538141969590015
                      }
                    }
                  }
                }
                JOINT leftThumbProximal
                {
                  OFFSET 0.09767004258864787 -0.14930060425447422 -0.07008212897521154
                  CHANNELS 3 Yrotation Xrotation Zrotation
                  JOINT leftThumbIntermediate
                  {
                    OFFSET 0.36682123028154767 -0.015768465060082004 0.28693641268151077
                    CHANNELS 3 Yrotation Xrotation Zrotation
                    JOINT leftThumbDistal
                    {
                      OFFSET 0.21091084272403915 -0.016756648201192714 0.1933767059105508
                      CHANNELS 3 Yrotation Xrotation Zrotation
                      End Site
                      {
                        OFFSET 0.21091084272403915 -0.016756648201192714 0.1933767059105508
                      }
                    }
                  }
                }
              }
            }
          }
        }
        JOINT rightShoulder
        {
          OFFSET -0.37618174442811925 1.0539491987447769 0
          CHANNELS 3 Yrotation Xrotation Zrotation
          JOINT rightUpperArm
          {
            OFFSET -0.870284438 0 0
            CHANNELS 3 Yrotation Xrotation Zrotation
            JOINT rightLowerArm
            {
              OFFSET -2.1985273100003235 0 0
              CHANNELS 3 Yrotation Xrotation Zrotation
              JOINT rightHand
              {
                OFFSET -2.1468523139682802 0 0
                CHANNELS 3 Yrotation Xrotation Zrotation
                JOINT rightIndexProximal
                {
                  OFFSET -0.6585177834681599 0.07380250427007962 0.18382213159631788
                  CHANNELS 3 Yrotation Xrotation Zrotation
                  JOINT rightIndexIntermediate
                  {
                    OFFSET -0.3323021288626682 -0.009606893929485771 -0.012820872253340998
                    CHANNELS 3 Yrotation Xrotation Zrotation
                    JOINT rightIndexDistal
                    {
                      OFFSET -0.2045908926985518 -0.0071133989147997845 -0.006828784783599051
                      CHANNELS 3 Yrotation Xrotation Zrotation
                      End Site
                      {
                        OFFSET -0.2045908926985518 -0.0071133989147997845 -0.006828784783599051
                      }
                    }
                  }
                }
                JOINT rightLittleProximal
                {
                  OFFSET -0.6110054258835662 0.07380246363125398 -0.29175655876064077
                  CHANNELS 3 Yrotation Xrotation Zrotation
                  JOINT rightLittleIntermediate
                  {
                    OFFSET -0.3144281999999998 -2.5124724523095665e-9 1.8658118799974588e-7
                    CHANNELS 3 Yrotation Xrotation Zrotation
                    JOINT rightLittleDistal
                    {
                      OFFSET -0.18116185580251631 0.002815456192251098 0.0034826415518049436
                      CHANNELS 3 Yrotation Xrotation Zrotation
                      End Site
                      {
                        OFFSET -0.18116185580251631 0.002815456192251098 0.0034826415518049436
                      }
                    }
                  }
                }
                JOINT rightMiddleProximal
                {
                  OFFSET -0.6637478005691111 0.07380246480054087 0.02046981859247815
                  CHANNELS 3 Yrotation Xrotation Zrotation
                  JOINT rightMiddleIntermediate
                  {
                    OFFSET -0.3705733999999994 -2.9611069152224445e-9 9.35054791928458e-8
                    CHANNELS 3 Yrotation Xrotation Zrotation
                    JOINT rightMiddleDistal
                    {
                      OFFSET -0.22861063500000056 -1.82673876025774e-9 -1.6740782024515788e-7
                      CHANNELS 3 Yrotation Xrotation Zrotation
                      End Site
                      {
                        OFFSET -0.22861063500000056 -1.82673876025774e-9 -1.6740782024515788e-7
                      }
                    }
                  }
                }
                JOINT rightRingProximal
                {
                  OFFSET -0.6561845547265777 0.07380246406440083 -0.13588087571513918
                  CHANNELS 3 Yrotation Xrotation Zrotation
                  JOINT rightRingIntermediate
                  {
                    OFFSET -0.3437531000000005 -2.746796123886952e-9 1.4935781944558357e-7
                    CHANNELS 3 Yrotation Xrotation Zrotation
                    JOINT rightRingDistal
                    {
                      OFFSET -0.1983118991198174 -0.002467117924596085 -0.004538141969590015
                      CHANNELS 3 Yrotation Xrotation Zrotation
                      End Site
                      {
                        OFFSET -0.1983118991198174 -0.002467117924596085 -0.004538141969590015
                      }
                    }
                  }
                }
                JOINT rightThumbProximal
                {
                  OFFSET -0.09767004258864787 -0.14930060425447422 -0.07008212897521154
                  CHANNELS 3 Yrotation Xrotation Zrotation
                  JOINT rightThumbIntermediate
                  {
                    OFFSET -0.36682123028154767 -0.015768465060082004 0.28693641268151077
                    CHANNELS 3 Yrotation Xrotation Zrotation
                    JOINT rightThumbDistal
                    {
                      OFFSET -0.21091084272403915 -0.016756648201192714 0.1933767059105508
                      CHANNELS 3 Yrotation Xrotation Zrotation
                      End Site
                      {
                        OFFSET -0.21091084272403915 -0.016756648201192714 0.1933767059105508
                      }
                    }
                  }
                }
              }
            }
          }
        }
      }
    }
  }
  JOINT leftUpperLeg
  {
    OFFSET 0.7715603 -0.3993844658041501 0
    CHANNELS 3 Yrotation Xrotation Zrotation
    JOINT leftLowerLeg
    {
      OFFSET 0 -3.529830000249343 0
      CHANNELS 3 Yrotation Xrotation Zrotation
      JOINT leftFoot
      {
        OFFSET 0 -4.154939295409685 0.004208579085223096
        CHANNELS 3 Yrotation Xrotation Zrotation
        JOINT leftToes
        {
          OFFSET 0 -0.6353414391261847 1.10414981190622
          CHANNELS 3 Yrotation Xrotation Zrotation
          End Site
          {
            OFFSET 0 -0.6015820691747853 1.10414981190622
          }
        }
      }
    }
  }
  JOINT rightUpperLeg
  {
    OFFSET -0.7715603 -0.3993844658041501 0
    CHANNELS 3 Yrotation Xrotation Zrotation
    JOINT rightLowerLeg
    {
      OFFSET 0 -3.529830000249343 0
      CHANNELS 3 Yrotation Xrotation Zrotation
      JOINT rightFoot
      {
        OFFSET 0 -4.154939295409685 0.004208579085223096
        CHANNELS 3 Yrotation Xrotation Zrotation
        JOINT rightToes
        {
          OFFSET 0 -0.6353414391261847 1.10414981190622
          CHANNELS 3 Yrotation Xrotation Zrotation
          End Site
          {
            OFFSET 0 -0.6015820691747853 1.10414981190622
          }
        }
      }
    }
  }
}
MOTION
Frames: 4
Frame Time: 0.03333333333333333
0.38341633298180317 8.788328170776365 1.1303262436719035 21.19427296898531 -3.583879021759062 -6.1167053120606605 2.1932460577903155 -1.483485610444291 0.39729777458367177 5.325644243053735 -0.5712805113949554 10.41724319770982 0 0 0 -1.028174202754007 8.152908924370484 -3.8054822540286977 2.3658526924313716 1.8210207031018204 -15.546495724788207 0 0 0 0 0 0 -10.990043998375329 1.183016470775581 -1.1772212550285914 -30.54938140353966 -22.474490765637075 -42.399945538207525 -133.51681319787187 -0.00003934990638393556 0.00011540720073831267 5.142751770284225 -50.18088991068695 -3.1253664653504125 -12.977893989836666 -5.047056866785084 -22.585121407202642 4.051104872434317 1.0192742260404954 -34.117277004691594 0.8092611139008834 0.034521959278872326 -10.16933876785808 15.855214926026822 2.9614325381745057 -68.66309462133518 5.799335963180863 5.013432971708227 -85.31858548721098 5.3260806006336505 2.9078676080929426 -54.84976318635782 -0.20230443220770336 -4.30029308758863 -32.69005551006502 4.862223461010079 1.5869406818113123 -44.29999106826588 2.317407115186668 0.4438307979647429 -20.968067090028633 5.769275716091152 -1.732587096137164 -47.881528394554365 5.203937236892598 3.833801880473799 -65.22639942674459 2.166974281235454 0.7122760223345213 -23.06705078157016 -14.800377671550311 -1.7651449119104183 41.29544988127448 13.341198452073597 -5.833808237404179 -6.792201575001347 -2.227854568871587 -10.88425331091149 1.899587049808068 18.580521352584398 10.174516295654582 -29.236910350548246 37.30058380891032 -32.69667409643369 -20.186149953777267 17.867929762428577 -0.000004743580011907003 0.000020743455092093382 57.64145046586433 14.229032686088008 16.985629921503733 0.37112691705766276 -2.2126285552562344 24.83523711008808 -3.825931229648959 0.8884994133336154 31.915647594895038 -1.3818571033084281 -0.03794780342628066 25.016779593072975 -12.81541163944806 -0.11350373097973913 52.74939020141659 -4.83757590172709 2.065163375183075 56.80920361256528 -1.5759869443955439 -0.7074381695630505 33.24903162097888 -3.725972863576906 -1.8991159802548263 32.791933007878185 -4.803664819461814 1.587989518392737 44.70993310484674 -2.7637098649362803 0.6247773622218581 27.045814091356007 -6.521086707837552 -0.6086402121998544 43.63008486038474 -4.62273343448885 2.603434343254459 51.48140450006468 -1.096289320437648 0.0634724540113558 28.9347741297313 -1.4227329880255555 22.526962459485674 -5.388504846600079 -33.22798740905801 1.0543872547063466 9.975154849905582 -9.536351401276233 0.6634165837312616 8.045762969034126 10.626057062425257 -20.1653997101208 7.289231033174879 6.1036758537333045 22.425770330763473 5.231415815078046 -10.096689565128967 -0.636137348238007 -2.912435781558632 -0.0000028096532623922534 -1.3225727000211522 4.510087244742068e-7 -7.622819180206906 -1.113413214757175 11.024047075816373 -9.189474761866496 14.767727367528552 -2.029868346125968 -13.097253119624767 -10.852739593465586 -1.8103271014488014 0.0000035039028562928394 -0.5389705455138586 0.0000034654373078836326
0.3793366117910905 8.792589361017399 1.142317302910164 20.38768215977522 -3.5340796919723747 -6.2027167683250335 1.9687557686715453 -1.5226694815307016 0.3705968747850888 5.082787771494269 -0.6550171362612698 10.386794907523008 0 0 0 -0.9373922012795857 8.473209214551098 -3.7774512681795662 2.668806454258127 1.438438568074604 -15.289292089433218 0 0 0 0 0 0 -10.649350888209232 1.1365196095541108 -0.9243270824331752 -31.479445546706124 -22.187789698664304 -40.774827384306654 -132.82545375936482 -0.00005489971944026035 0.00013958494325624083 3.1825728124209385 -49.37365434952504 -0.4523518762921121 -12.97813071750785 -5.047203858902584 -22.585327892973805 4.051127259892281 1.0193087026069567 -34.117474043171576 0.8092439385388427 0.03452323326946635 -10.169324719116556 15.855249690189016 2.9613921434247774 -68.66357305861754 5.799361303374258 5.013515677282225 -85.31922862078906 5.326093260205877 2.907913771310516 -54.85028198497268 -0.202402113002563 -4.300401822966716 -32.69031189762366 4.862242898707278 1.586933315188182 -44.30015294182673 2.317424603756623 0.443848247487188 -20.968191405041058 5.769227781732468 -1.7326713380781478 -47.88183338986442 5.203956294893279 3.8338271232851975 -65.22681299285303 2.1669896393575065 0.7122733540856997 -23.067104373768245 -14.800675321925878 -1.7653993504879466 41.295916596640446 13.340929372194534 -5.83390564520562 -6.792215575936285 -2.228039962061807 -10.884368942974707 1.899608276754481 18.03894575561756 10.540801197038872 -30.337149946676785 36.10716082867396 -34.73735384715286 -20.164988442125654 16.542406174398785 -0.000003719171896994259 0.000014771004829465278 60.69352130040742 19.742841893582465 13.29966568775147 1.4115380784866354 -2.1875400654194785 21.593406944471884 -3.630029281410613 0.7722447287150345 29.664273814082136 -1.1497740811140311 -0.08772306194937703 22.74570853976262 -11.777070956534674 -0.4422436920309934 49.53570311370435 -4.6901421795633915 1.8939896764583528 54.57936487455014 -1.3184471677347087 -0.7392440930819946 30.97115843572713 -2.766445263270793 -2.0644107119157407 29.54324236255972 -4.6358098390352485 1.436467331439805 42.45459371114836 -2.559145734978044 0.525176917297474 24.774659810469956 -5.7174641740414245 -0.9797511916339484 40.389924762392326 -4.495621412653062 2.4148928817950948 49.21533442154378 -0.8709437432663419 0.0018263762842976744 26.66004630427297 -1.4962224225862926 22.8547525133108 -4.898498223766395 -33.3464163793328 1.0853671369033546 10.57787864767764 -9.693361041754923 0.5918356372628246 8.636686330879343 10.780992345357895 -20.085283705441828 7.634965112036106 6.072230578591846 22.3895302420964 5.0811248029749505 -9.527696600173375 -0.7295396248108453 -3.022474548879155 0.000005282854985812316 -1.751778019941145 -0.000003952445837890614 -7.4931091637355 -0.8108331108591896 11.046915980475328 -9.152086561789165 14.228671560163182 -1.7804857562977252 -12.3145873540372 -10.65632393328605 -2.1102475519695365 0.0000035039028562928394 -0.5389705455138586 0.0000034654373078836326
0.37475648251446814 8.79649595780806 1.1519543241158061 19.510230558885446 -3.4800877433027058 -6.276103263743949 1.7538516278604555 -1.5613800445268702 0.3391926751426171 4.816537840464296 -0.7228814698272923 10.37296768342442 0 0 0 -0.8282503917213696 8.624957165860655 -3.775281670696862 3.0048828228611204 0.9531427521512403 -15.187970580432703 0 0 0 0 0 0 -10.242823293861537 1.1228176146028865 -0.5151121843154124 -32.206506330131816 -22.17793701264828 -38.92296069149484 -132.29096885513786 -0.00004350886767295522 0.00012202093713222783 1.3711819591696888 -48.853827999683865 2.0876799992719435 -12.978298580210856 -5.047292568447336 -22.585477946023595 4.051135351756758 1.0193135058437994 -34.117589620882356 0.8092435116945315 0.03451651647088967 -10.169334566052003 15.855257914089428 2.9613553820665164 -68.66393851839722 5.799374439770614 5.013541817388102 -85.31960129939937 5.3261148572061545 2.9079370666386204 -54.85062543524434 -0.20247196929083022 -4.300482304280175 -32.69047136545752 4.862225588579201 1.5869483687224333 -44.30024956514376 2.3174458561021543 0.4438307712835159 -20.968283352314057 5.7691899639525746 -1.7327553664818218 -47.88205356980186 5.2039706660068505 3.8338468041217197 -65.22704738688763 2.1669862264415216 0.712285414570386 -23.067130384294824 -14.800885057671856 -1.7655461625239761 41.296250242376914 13.340754439203215 -5.833963574963399 -6.79228580167119 -2.2281782008543627 -10.884416760758327 1.8996327355791676 17.465618285415914 10.846139773453702 -31.375635016391445 34.87947514626258 -36.376663920054426 -20.00240403298145 15.495019094254296 -0.000004102129407748432 0.000006320831429107453 62.652251597802774 24.91659652344091 9.677761379899392 2.429933258202005 -2.0314008815320768 18.180400393615 -3.416688980872755 0.6570907148534896 27.268059427842584 -0.9011401816811254 -0.13049889439105358 20.33159323242476 -10.74363966462131 -0.6160151032313878 46.13684973625018 -4.525681658825508 1.7179157090760013 52.20068488380423 -1.0430945183054927 -0.7618508640573872 28.54594281900756 -1.8193071609303721 -2.1051789225676885 26.115872203656753 -4.4507310010602215 1.2825981852927255 40.05322997702648 -2.3374613647313107 0.42822843314530834 22.359404586786056 -4.9080131372415305 -1.2412385082647295 36.964433297147565 -4.352172284264315 2.2197923788268383 46.801788686190896 -0.6287926545061022 -0.053882349778159776 24.24009398308148 -1.5581302971723014 23.14889303206332 -4.457584706685595 -33.45014141403474 1.1135302038376806 11.119302391589235 -9.83311934960529 0.5285633935614698 9.16763702540933 10.93913553427291 -20.01087475559511 7.965308912541309 6.05632180236972 22.345838960633692 4.942349719623017 -8.900694973026088 -0.8076738866149134 -3.1419624641248243 0.000003639079190246946 -2.0718374037855756 -0.000002344066206834021 -7.399235811877717 -0.5515451196765742 11.033439810098223 -8.807803194217342 13.752772948517714 -1.420867226670853 -11.725780034479998 -10.465807614260346 -2.4431280618969806 0.0000035039028562928394 -0.5389705455138586 0.0000034654373078836326
0.37014069882306183 8.799166245893998 1.1593239541545444 18.568001154989105 -3.4164186258341585 -6.327835709661161 1.5510329695307574 -1.6027214369067337 0.30918305344136615 4.522929939105733 -0.7723299003732208 10.368297917641748 0 0 0 -0.6965921916383189 8.573620646581123 -3.783701123056988 3.403215631472738 0.3105884987567594 -15.249671786258927 0 0 0 0 0 0 -9.772771292037875 1.122743855742506 0.04894920269512453 -32.72462782661177 -22.512645822032376 -36.9209653828414 -131.97839529565405 -0.000049402108791132176 0.00011492613232652364 -0.2063879324464749 -48.64251634571996 4.45762506462658 -12.978262027037 -5.047271141019956 -22.585441290626505 4.051122149240948 1.019304646540295 -34.11758487731212 0.8092546096465955 0.03452296980020738 -10.169323038394094 15.8552562693094 2.961371197999572 -68.6638680443565 5.799371961700412 5.013529818650849 -85.31951745594505 5.326108047737945 2.907944760508559 -54.850557076118996 -0.20245825832689013 -4.300472030069473 -32.690444823385995 4.862240771138137 1.5869559488709273 -44.300215746982346 2.317441803872449 0.44384387176595935 -20.968269746416805 5.769208235464839 -1.7327307024900138 -47.881997951963264 5.203956605341701 3.8338570723844327 -65.22700603027239 2.16698686636327 0.7122737276405346 -23.067144058643226 -14.800835319452226 -1.765524060638538 41.29617052537597 13.340769470275964 -5.833940403059569 -6.792241527703272 -2.2281491794778923 -10.884403719543851 1.8996365305132248 16.86735811819005 11.106240527369987 -32.37686100646141 33.59204182947406 -37.55324152169123 -19.740485195682634 14.722528860373329 0.000005488646472033919 -0.00001594340145659606 63.547961942685006 29.20337680565492 6.207482852148603 3.349536480105311 -1.78111054653298 14.927907812568673 -3.2074484635976126 0.5549713129678451 24.965983249800757 -0.6610183381564394 -0.1616632682789223 18.014174670641456 -9.80569822698363 -0.6528640990580724 42.89076114050608 -4.361057295337368 1.5553939444047375 49.916684976279356 -0.7783304474376386 -0.7725607070369739 26.219882189916667 -0.95686044966135 -2.0427769207810313 22.84464252534455 -4.267071911388284 1.1422006753949903 37.74650671636937 -2.1210449674168945 0.34407228715639093 20.0412005409173 -4.153881607425792 -1.3956113896026867 33.69055830915318 -4.206833742542925 2.0383047933329523 44.4845364006866 -0.3944539446317506 -0.09767126551805327 21.918206522226384 -1.6094577795873082 23.40070350176419 -4.080384734979791 -33.538947659314424 1.1384662769211316 11.58186138962598 -9.953369056249567 0.47561981553875693 9.621421767110368 11.09302564536419 -19.96921414330044 8.266286748253032 6.034370119163998 22.347578077754363 4.812409018268193 -8.19025521197336 -0.8961550094646902 -3.266035113506864 0.00001749549668210695 -2.1819113131778507 0.0000018933712504715715 -7.348854077376299 -0.39212459485666196 10.981099315046729 -8.238466221254573 13.433388314159554 -1.0108382113830439 -11.27229934431975 -10.32501537329107 -2.774597162994696 0.0000035039028562928394 -0.5389705455138586 0.0000034654373078836326
